# Blender 4.0.2
# www.blender.org
mtllib turtle.mtl
o Cube
v 0.375042 -0.358659 -0.279761
v 0.375042 -0.358659 0.470239
v -0.000000 -0.358659 -0.279761
v -0.000000 -0.358659 0.470239
v -0.000000 -0.358659 -0.279761
v 0.375083 -0.358659 0.470239
v 0.375042 -0.358659 -0.279761
v 0.375042 -0.358659 0.470239
v -0.000000 -0.147722 -0.279761
v -0.000000 0.063216 -0.021948
v 0.375042 -0.147722 -0.279761
v 0.164104 0.063216 -0.021948
v -0.000000 0.063216 0.282739
v 0.375042 -0.147722 0.470239
v 0.164104 0.063216 0.282739
v -0.000000 -0.154922 0.470239
v -0.375042 -0.358659 -0.279761
v -0.375042 -0.358659 0.470239
v -0.375083 -0.358659 0.470239
v -0.375042 -0.358659 -0.279761
v -0.375042 -0.358659 0.470239
v -0.375042 -0.147722 -0.279761
v -0.164104 0.063216 -0.021948
v -0.375042 -0.147722 0.470239
v -0.164104 0.063216 0.282739
vn -0.0000 -1.0000 -0.0000
vn -1.0000 -0.0001 -0.0000
vn -0.0000 -0.0000 1.0000
vn -0.0000 -0.7740 0.6332
vn -0.7071 -0.7071 -0.0000
vn -0.0088 0.6556 0.7551
vn 1.0000 -0.0001 -0.0000
vn 0.7071 -0.7071 -0.0000
vn 0.0088 0.6556 0.7551
vt 0.625000 0.437500
vt 0.437500 0.437500
vt 0.437500 0.000000
vt 0.625000 0.000000
vt 0.000000 0.156250
vt 0.000000 0.875000
vt 0.125000 0.875000
vt 0.125000 0.156250
vt 0.218750 0.000000
vt 0.000000 0.000000
vt 0.218750 0.156250
vt 0.312500 0.406250
vt 0.437500 0.406250
vt 0.437500 0.156250
vt 0.312500 0.625000
vt 0.437500 0.625000
vt 0.218750 1.000000
vt 0.000000 1.000000
vt 0.218750 0.875000
vt 0.437500 0.875000
s 0
usemtl Material.001
f 3/1/1 1/2/1 2/3/1 4/4/1
f 7/5/2 6/6/2 14/7/2 11/8/2
f 5/9/3 7/10/3 11/5/3 9/11/3
f 12/12/4 10/13/4 9/14/4 11/8/4
f 15/15/5 12/12/5 11/8/5 14/7/5
f 10/13/1 12/12/1 15/15/1 13/16/1
f 14/17/3 16/18/3 4/6/3 2/19/3 8/19/3 6/19/3
f 16/20/6 14/7/6 15/15/6 13/16/6
f 3/1/2 4/6/2 16/20/2 13/16/2 10/13/2 9/11/2 5/9/2 7/5/2 6/19/2 8/19/2 2/3/2 1/2/2
f 3/1/1 4/4/1 18/3/1 17/2/1
f 20/5/7 22/8/7 24/7/7 19/6/7
f 5/9/3 9/11/3 22/5/3 20/10/3
f 23/12/4 22/8/4 9/14/4 10/13/4
f 25/15/8 24/7/8 22/8/8 23/12/8
f 10/13/1 13/16/1 25/15/1 23/12/1
f 24/17/3 19/19/3 21/19/3 18/19/3 4/6/3 16/18/3
f 16/20/9 13/16/9 25/15/9 24/7/9
f 3/1/7 17/2/7 18/3/7 21/19/7 19/19/7 20/5/7 5/9/7 9/11/7 10/13/7 13/16/7 16/20/7 4/6/7
o Cube.001
v -0.088467 -0.358659 -0.279366
v -0.088467 -0.171159 -0.279366
v -0.088467 -0.358659 -0.466866
v -0.088467 -0.171159 -0.466866
v 0.099033 -0.358659 -0.279366
v 0.099033 -0.171159 -0.279366
v 0.099033 -0.358659 -0.466866
v 0.099033 -0.171159 -0.466866
vn -1.0000 -0.0000 -0.0000
vn -0.0000 -0.0000 -1.0000
vn 1.0000 -0.0000 -0.0000
vn -0.0000 -0.0000 1.0000
vn -0.0000 -1.0000 -0.0000
vn -0.0000 1.0000 -0.0000
vt 1.000000 0.250000
vt 0.875000 0.250000
vt 0.875000 0.125000
vt 1.000000 0.125000
vt 0.750000 0.250000
vt 0.750000 0.125000
vt 0.625000 0.250000
vt 0.625000 0.125000
vt 0.750000 0.500000
vt 0.750000 0.375000
vt 0.875000 0.375000
vt 0.875000 0.500000
vt 0.750000 0.000000
vt 0.875000 0.000000
s 0
usemtl Material.001
f 26/21/10 27/22/10 29/23/10 28/24/10
f 28/25/11 29/26/11 33/23/11 32/22/11
f 32/25/12 33/27/12 31/28/12 30/26/12
f 30/29/13 31/30/13 27/31/13 26/32/13
f 28/25/14 32/22/14 30/31/14 26/30/14
f 33/33/15 29/34/15 27/23/15 31/26/15
o Cube.002
v -0.287021 -0.499284 -0.115477
v -0.287021 -0.358659 -0.115477
v -0.287021 -0.499284 -0.256102
v -0.287021 -0.358659 -0.256102
v -0.146396 -0.499284 -0.115477
v -0.146396 -0.358659 -0.115477
v -0.146396 -0.499284 -0.256102
v -0.146396 -0.358659 -0.256102
v 0.287021 -0.499284 -0.115477
v 0.287021 -0.358659 -0.115477
v 0.287021 -0.499284 -0.256102
v 0.287021 -0.358659 -0.256102
v 0.146396 -0.499284 -0.115477
v 0.146396 -0.358659 -0.115477
v 0.146396 -0.499284 -0.256102
v 0.146396 -0.358659 -0.256102
v -0.287021 -0.499284 0.299678
v -0.287021 -0.358659 0.299678
v -0.287021 -0.499284 0.440303
v -0.287021 -0.358659 0.440303
v -0.146396 -0.499284 0.299678
v -0.146396 -0.358659 0.299678
v -0.146396 -0.499284 0.440303
v -0.146396 -0.358659 0.440303
v 0.287021 -0.499284 0.299678
v 0.287021 -0.358659 0.299678
v 0.287021 -0.499284 0.440303
v 0.287021 -0.358659 0.440303
v 0.146396 -0.499284 0.299678
v 0.146396 -0.358659 0.299678
v 0.146396 -0.499284 0.440303
v 0.146396 -0.358659 0.440303
vn -1.0000 -0.0000 -0.0000
vn -0.0000 -0.0000 -1.0000
vn 1.0000 -0.0000 -0.0000
vn -0.0000 -0.0000 1.0000
vn -0.0000 -1.0000 -0.0000
vn -0.0000 1.0000 -0.0000
vt 1.000000 0.875000
vt 0.875000 0.875000
vt 0.875000 0.750000
vt 1.000000 0.750000
vt 0.875000 1.000000
vt 0.750000 1.000000
vt 0.750000 0.875000
vt 0.625000 0.875000
vt 0.625000 0.750000
vt 0.750000 0.750000
vt 0.875000 0.625000
vt 0.750000 0.625000
vt 0.750000 0.500000
vt 0.875000 0.500000
s 0
usemtl Material.001
f 34/35/16 35/36/16 37/37/16 36/38/16
f 36/39/17 37/40/17 41/41/17 40/36/17
f 40/41/18 41/42/18 39/43/18 38/44/18
f 38/45/19 39/37/19 35/44/19 34/46/19
f 36/44/20 40/37/20 38/36/20 34/41/20
f 41/47/21 37/48/21 35/45/21 39/46/21
f 42/35/18 44/38/18 45/37/18 43/36/18
f 44/39/17 48/36/17 49/41/17 45/40/17
f 48/41/16 46/44/16 47/43/16 49/42/16
f 46/45/19 42/46/19 43/44/19 47/37/19
f 44/44/20 42/41/20 46/36/20 48/37/20
f 49/47/21 47/46/21 43/45/21 45/48/21
f 50/35/16 52/38/16 53/37/16 51/36/16
f 52/39/19 56/36/19 57/41/19 53/40/19
f 56/41/18 54/44/18 55/43/18 57/42/18
f 54/45/17 50/46/17 51/44/17 55/37/17
f 52/44/20 50/41/20 54/36/20 56/37/20
f 57/47/21 55/46/21 51/45/21 53/48/21
f 58/35/18 59/36/18 61/37/18 60/38/18
f 60/39/19 61/40/19 65/41/19 64/36/19
f 64/41/16 65/42/16 63/43/16 62/44/16
f 62/45/17 63/37/17 59/44/17 58/46/17
f 60/44/20 64/37/20 62/36/20 58/41/20
f 65/47/21 61/48/21 59/45/21 63/46/21
